<?xml version="1.0" encoding="utf-8"?>
<!-- Generator: Adobe Illustrator 27.5.0, SVG Export Plug-In . SVG Version: 6.00 Build 0)  -->
<svg version="1.1" xmlns="http://www.w3.org/2000/svg" xmlns:xlink="http://www.w3.org/1999/xlink" x="0px" y="0px"
	 viewBox="0 0 750 500" style="enable-background:new 0 0 750 500;" xml:space="preserve">
<g id="BACKGROUND">
	<rect y="0.728" style="fill:#FFFFFF;" width="750" height="499.272"/>
</g>
<g id="OBJECTS">
	<g>
		<g>
			<g>
				<g>
					<rect x="223.375" y="82.99" style="fill:none;" width="303.25" height="30.521"/>
					<text transform="matrix(1 0 0 1 225.8221 87.3598)"><tspan x="0" y="0" style="fill:#444CEC; font-family:'Montserrat-Regular'; font-size:5.89px;">Lorem ipsum dolor sit amet, consectetur adipiscing elit. Quisque mauris odio, pulvinar sed gravida at, </tspan><tspan x="5.843" y="10.96" style="fill:#444CEC; font-family:'Montserrat-Regular'; font-size:5.89px;">molestie a lectus. Nam vehicula tellus tristique, lobortis est a, finibus erat. Fusce in ex fermentum, </tspan><tspan x="104.559" y="21.92" style="fill:#444CEC; font-family:'Montserrat-Regular'; font-size:5.89px;">facilisis turpis ac, efficitur eros.</tspan></text>
				</g>
				<text transform="matrix(1 0 0 1 310.6555 51.5566)"><tspan x="0" y="0" style="fill:#444CEC; font-family:'Montserrat-ExtraBold'; font-size:15.2804px; letter-spacing:1;">It is a great</tspan><tspan x="-40.539" y="18.336" style="fill:#444CEC; font-family:'Montserrat-ExtraBold'; font-size:15.2804px; letter-spacing:1;">source of learning</tspan></text>
			</g>
			<g>
				<path style="fill:#8B136D;" d="M130.346,220.606c0,0-7.117,8.611-14.159,3.217c-5.973-4.575-8.863-29.479,5.062-31.729
					c0,0,5.865-6.083,17.259-5.208s13.741,11.679,11.616,19.256c-2.125,7.577-2.823,10.952-0.541,12.756
					C149.584,218.898,142.446,225,130.346,220.606z"/>
				<polygon style="fill:#F4CB45;" points="171.714,137.688 173.332,140.967 176.951,141.492 174.332,144.045 174.95,147.649 
					171.714,145.947 168.477,147.649 169.095,144.045 166.477,141.492 170.096,140.967 				"/>
				<g>
					<path style="fill:#CAE8FF;" d="M88,437.945c0,0-28.667-33.648,0-73.359s112.918-11.82,156.792,18.757
						s112.886,9.698,88.713-46.151s39.161-99.28,127.161-67.276s168.926,0.322,182.463-39.504
						c13.537-39.825,78.871,36.893,25.537,207.534L88,437.945z"/>
					<line style="fill:none;stroke:#FFFFFF;stroke-miterlimit:10;" x1="178.738" y1="221.735" x2="182.089" y2="232.522"/>
					<g>
						<path style="fill:#FFA9A8;" d="M154.782,234.81c0,0,26.37-4.636,29.495-6.367c3.125-1.731,19.923-14.528,19.923-14.528
							l-3.429-5.874c0,0-18.118,9.686-18.933,10.372c-0.815,0.686-26.37,5.397-26.37,5.397L154.782,234.81z"/>
						<path style="fill:#F48989;" d="M168.248,221.388c0,0-6.18,3.325-6.533,4.439c-0.259,0.818,0.776,5.196,1.345,7.467
							c0.001,0,0.002,0,0.003,0c3.941-0.743,8.651-1.663,12.663-2.538L168.248,221.388z"/>
						<polygon style="fill:#DD0E8E;" points="143.418,223.459 167.879,220.09 171.714,233.58 145.155,238.752 						"/>
						<line style="fill:none;stroke:#FF92D6;stroke-miterlimit:10;" x1="166.271" y1="222.419" x2="168.7" y2="232.207"/>
						<path style="fill:#FFA9A8;" d="M200.771,208.041c0,0,4.335-11.995,6.883-12.095c2.548-0.1-0.762,12.199-0.762,12.199
							s2.638-1.726,3.55-1.098c0.913,0.628-6.242,6.868-6.242,6.868L200.771,208.041z"/>
						<g>
							<g>
								<g>
									<g>
										<g>
											<g>
												<g>
													<polygon style="fill:#442CD3;" points="112.989,428.793 93.893,434.99 93.893,437.945 121.78,437.945 121.132,428.793 
																											"/>
													<g>
														<g>
															<path style="fill:#FFFFFF;" d="M104.808,433.461c-0.264,0-0.512-0.16-0.61-0.422l-0.759-2.014
																c-0.127-0.338,0.043-0.713,0.38-0.841c0.341-0.131,0.715,0.043,0.841,0.38l0.759,2.014
																c0.127,0.338-0.043,0.713-0.38,0.841C104.962,433.449,104.885,433.461,104.808,433.461z"/>
														</g>
														<g>
															<path style="fill:#FFFFFF;" d="M107.219,432.704c-0.264,0-0.512-0.16-0.61-0.422l-0.759-2.014
																c-0.127-0.338,0.043-0.713,0.38-0.841c0.339-0.13,0.715,0.043,0.841,0.38l0.759,2.014
																c0.127,0.338-0.043,0.713-0.38,0.841C107.373,432.691,107.296,432.704,107.219,432.704z"/>
														</g>
														<g>
															<path style="fill:#FFFFFF;" d="M109.629,431.947c-0.264,0-0.512-0.16-0.61-0.422l-0.759-2.014
																c-0.127-0.338,0.043-0.713,0.38-0.841c0.341-0.13,0.715,0.043,0.841,0.38l0.759,2.014
																c0.127,0.338-0.043,0.713-0.38,0.841C109.783,431.934,109.706,431.947,109.629,431.947z"/>
														</g>
													</g>
												</g>
												<polygon style="fill:#FFA9A8;" points="112.989,428.793 116.3,334.722 131.381,334.722 121.132,428.793 												"/>
												<path style="fill:#FE26A5;" d="M131.646,221.925l-15.458,6.02v53.397h43.02l-6.255-50.848
													c-0.274-2.231-1.766-4.124-3.871-4.912l-9.758-3.656H131.646z"/>
												<path style="fill:#FFFFFF;" d="M131.646,221.925h7.678l5.83,2.184c-0.125,2.049-1.34,10.296-8.794,10.351
													c-7.749,0.057-9.552-5.899-9.969-10.489L131.646,221.925z"/>
												<path style="fill:#FFA9A8;" d="M131.646,221.925h7.678l4.094,1.534c-0.165,2.159-1.074,8.062-6.099,8.876
													c-5.513,0.894-8.906-3.012-9.526-8.91L131.646,221.925z"/>
												<path style="fill:#FFA9A8;" d="M126.838,209.852l4.766,15.191c0.541,1.726,2.14,2.9,3.949,2.9l0,0
													c2.359,0,4.241-1.969,4.134-4.326l-0.301-6.638L126.838,209.852z"/>
												<path style="fill:#F48989;" d="M139.615,222.037c-9.149-0.618-11.356-9.388-11.356-9.388l2.643-0.487l8.484,4.819
													L139.615,222.037z"/>
												<g>
													<g>
														<path style="fill:#FFA9A8;" d="M126.838,209.852c0,0-3.562-0.883-3.11-4.58c0.451-3.697,3.414-3.212,4.396-1.206
															c0.418,0.854,0.619,1.726,0.712,2.444l0.703-0.076c0,0,1.704-6.289,4.104-7.804c2.494-1.575,6.318,0.361,8.064,0.463
															c1.198,0.07,4.141-0.931,4.854-0.624c1.92,0.827,1.778,16.134-3.542,20.013S128.888,215.796,126.838,209.852z"/>
													</g>
													<path style="fill:#87156C;" d="M138.708,213.406c0,0,0.312,0.092,0.779,0.23c0.451,0.124,1.02,0.283,1.579,0.32
														c0.557,0.059,1.115,0.001,1.563-0.096c0.227-0.04,0.417-0.097,0.557-0.134c0.141-0.034,0.23-0.05,0.23-0.05
														c-0.01-0.015-0.157,0.32-0.582,0.626c-0.103,0.082-0.22,0.167-0.36,0.223c-0.137,0.064-0.281,0.146-0.446,0.176
														c-0.32,0.101-0.686,0.129-1.041,0.1c-0.356-0.037-0.699-0.13-0.995-0.268c-0.297-0.135-0.548-0.305-0.741-0.473
														C138.86,213.729,138.708,213.406,138.708,213.406z"/>
													<g>
														<path style="fill:#2C4784;" d="M137.698,200.266c0,0-0.01,0.002-0.028,0.006c0.01,0.001,0.021,0.003,0.032,0.004
															L137.698,200.266z"/>
													</g>
												</g>
												<polygon style="fill:#442CD3;" points="110.281,420.995 124.943,420.995 139.043,281.342 116.188,281.342 												
													"/>
												<g>
													<polygon style="fill:#442CD3;" points="162.406,428.793 181.502,434.99 181.502,437.945 153.615,437.945 
														154.264,428.793 													"/>
													<g>
														<g>
															<path style="fill:#FFFFFF;" d="M170.587,433.461c0.264,0,0.512-0.16,0.61-0.422l0.759-2.014
																c0.127-0.338-0.043-0.713-0.38-0.841c-0.341-0.131-0.715,0.043-0.841,0.38l-0.759,2.014
																c-0.127,0.338,0.043,0.713,0.38,0.841C170.433,433.449,170.511,433.461,170.587,433.461z"/>
														</g>
														<g>
															<path style="fill:#FFFFFF;" d="M168.176,432.704c0.264,0,0.512-0.16,0.61-0.422l0.759-2.014
																c0.127-0.338-0.043-0.713-0.38-0.841c-0.339-0.13-0.715,0.043-0.841,0.38l-0.759,2.014
																c-0.127,0.338,0.043,0.713,0.38,0.841C168.022,432.691,168.1,432.704,168.176,432.704z"/>
														</g>
														<g>
															<path style="fill:#FFFFFF;" d="M165.766,431.947c0.264,0,0.512-0.16,0.61-0.422l0.759-2.014
																c0.127-0.338-0.043-0.713-0.38-0.841c-0.341-0.13-0.715,0.043-0.841,0.38l-0.759,2.014
																c-0.127,0.338,0.043,0.713,0.38,0.841C165.612,431.934,165.69,431.947,165.766,431.947z"/>
														</g>
													</g>
												</g>
												<polygon style="fill:#FFA9A8;" points="162.406,428.793 159.095,334.722 144.014,334.722 154.264,428.793 												
													"/>
												<polygon style="fill:#442CD3;" points="165.114,420.995 150.452,420.995 136.352,281.342 159.208,281.342 												
													"/>
												<line style="fill:none;stroke:#5261EF;stroke-miterlimit:10;" x1="112.989" y1="417.502" x2="122.701" y2="417.502"/>
												<line style="fill:none;stroke:#5261EF;stroke-miterlimit:10;" x1="153.55" y1="417.502" x2="162.923" y2="417.502"/>
												<rect x="129.471" y="281.342" style="fill:#442CD3;" width="19.144" height="26.374"/>
												<line style="fill:none;stroke:#5261EF;stroke-miterlimit:10;" x1="155.827" y1="285.42" x2="125.772" y2="285.42"/>
												<polygon style="fill:#DD0E8E;" points="116.188,227.945 100.046,251.633 112.008,259.435 116.188,251.633 												
													"/>
												<line style="fill:none;stroke:#5261EF;stroke-miterlimit:10;" x1="124.943" y1="287.034" x2="116.908" y2="295.856"/>
												<line style="fill:none;stroke:#5261EF;stroke-miterlimit:10;" x1="152.537" y1="287.808" x2="159.27" y2="295.315"/>
												<polyline style="fill:none;stroke:#5261EF;stroke-miterlimit:10;" points="141.697,289.268 141.697,304.797 
													135.644,304.797 												"/>
												<rect x="138.31" y="281.342" style="fill:none;stroke:#5261EF;stroke-miterlimit:10;" width="7.71" height="4.078"/>
											</g>
											<line style="fill:none;stroke:#FF92D6;stroke-miterlimit:10;" x1="111.504" y1="256.481" x2="103.145" y2="250.644"/>
										</g>
										<path style="fill:#F48989;" d="M141.193,206.511c0,0,1.91,2.872,2.234,3.773c0.324,0.901-2.234,0.757-2.234,0.757V206.511
											z"/>
										<path style="fill:#F48989;" d="M127.141,205.035c0,0-0.82-1.083-1.603-0.786c-0.784,0.297-1,2.918,0.594,3.837
											c0,0-0.887-1.675-0.416-2.567C126.186,204.627,127.141,205.035,127.141,205.035z"/>
									</g>
									<g>
										<path style="fill:#87156C;" d="M138.273,206.144c-0.289,0-0.523-0.234-0.523-0.523c0-0.241,0.166-0.435,0.388-0.496
											c-0.152-0.164-0.333-0.261-0.527-0.261c-0.533,0-0.964,0.711-0.964,1.588s0.432,1.588,0.964,1.588
											c0.532,0,0.964-0.711,0.964-1.588c0-0.137-0.014-0.267-0.033-0.394C138.462,206.108,138.374,206.144,138.273,206.144z"/>
									</g>
									<g>
										<g>
											<path style="fill:#87156C;" d="M144.958,206.395c-0.251,0-0.454-0.203-0.454-0.454c0-0.209,0.144-0.378,0.337-0.43
												c-0.132-0.142-0.289-0.226-0.458-0.226c-0.462,0-0.837,0.617-0.837,1.378s0.374,1.378,0.837,1.378
												s0.837-0.617,0.837-1.378c0-0.119-0.012-0.232-0.029-0.342C145.122,206.364,145.045,206.395,144.958,206.395z"/>
										</g>
									</g>
									<g>
										
											<rect x="137.205" y="201.38" transform="matrix(0.0821 -0.9966 0.9966 0.0821 -76.2349 323.5548)" style="fill:#87156C;" width="0.652" height="3.567"/>
									</g>
									<g>
										<g>
											<polygon style="fill:#87156C;" points="143.157,203.77 145.929,203.634 145.896,202.983 143.124,203.119 											"/>
										</g>
									</g>
								</g>
								<g>
									<path style="fill:#FFA9A8;" d="M101.268,252.362c0,0-3.903,5.72-3.196,8.383c1.285,4.845,32.029,18.612,32.029,18.612
										v-7.744l-18.602-12.578L101.268,252.362z"/>
									<path style="fill:#F48989;" d="M122.94,276.02l3.984-5.834l3.177,7.748v0.117l-1.155,0.782
										C127.706,278.267,125.561,277.276,122.94,276.02z"/>
									<path style="fill:#F48989;" d="M101.268,252.362l10.231,6.673l-11.6-4.41C100.619,253.319,101.268,252.362,101.268,252.362
										z"/>
								</g>
								<path style="fill:#FFA9A8;" d="M128.781,269.977c0,0-0.245-1.93,1.947-1.93h1.35c0.883,0,1.586,0.741,1.54,1.623
									l-0.058,1.104L128.781,269.977z"/>
								
									<rect x="129.471" y="268.644" transform="matrix(0.9978 -0.0666 0.0666 0.9978 -17.7461 9.8237)" style="fill:#444CEC;" width="18.076" height="5.017"/>
								<path style="fill:#FFA9A8;" d="M133.624,270.187c0,0-6.13-0.611-6.7,0c-0.571,0.611-1.182,8.478,0.326,8.885
									s6.295,0.341,6.621-0.352C134.197,278.027,134.969,270.757,133.624,270.187z"/>
							</g>
							<path style="fill:#87156C;" d="M147.607,206.142"/>
						</g>
						<path style="fill:#8B136D;" d="M147.028,198.586c0,0-1.808,2.708-9.209,3.083c-7.815,0.396-9.597,10.933-7.083,20.615
							c0,0-7.26-1.971-7.685-4.395c-0.426-2.424-2.426-7.693-2.551-12.246s-1.958-6.303-0.417-7.803s4.965-4.5,4.965-4.5
							s4.452-2.437,7.452-1.969c3,0.469,1.408-1.156,5.142,0.844s4.103,1.375,4.793,2.125
							C143.125,195.09,147.028,198.586,147.028,198.586z"/>
						<polygon style="fill:#DD0E8E;" points="116.188,245.627 112.008,259.435 116.188,251.633 						"/>
					</g>
					<g>
						<path style="fill:#8B136D;" d="M283.384,206.663c0,0-4.558-4.952-3.384-13.598c1.125-8.283,9.125-7.721,9.125-7.721
							s-1.197,1.938,0.633,2.408c1.709,0.44,7.619-2.313,13.4,0.688c5.78,3,5.28,7.813,5.28,7.813s3.891,2.609,3.563,7.124
							c-0.625,8.589-7.887,9.376-8.344,12.407c-0.327,2.169,1.255,1.969,1.255,1.969s-1.629,1.858-3.176-0.321
							S283.384,206.663,283.384,206.663z"/>
						<path style="fill:#8B136D;" d="M302.519,218.144c0,0,0.265,0.921,1.393,1.014c0,0-2.059,1.502-3.559-1.014
							s2.281-1.361,2.281-1.361L302.519,218.144z"/>
						<g>
							<path style="fill:#FFA9A8;" d="M275.638,235.878c0,0-30.691-7.752-33.724-9.64c-3.033-1.887-19.161-15.519-19.161-15.519
								l3.722-5.692c0,0,17.604,10.592,18.383,11.319s30.653,8.512,30.653,8.512L275.638,235.878z"/>
							<path style="fill:#F48989;" d="M258.151,231.42c0.217-1.89,0.721-6.107,0.973-6.723c0.326-0.797-0.482-4.072-0.482-4.072
								l-6.768,8.985C253.859,230.197,255.992,230.81,258.151,231.42z"/>
							<path style="fill:#F48989;" d="M263.204,221.138c0,0,6.18,3.325,6.533,4.439c0.259,0.818-0.776,5.196-1.345,7.467
								c-0.001,0-0.002,0-0.003,0c-3.941-0.743-7.568-1.122-11.58-1.996L263.204,221.138z"/>
							<polygon style="fill:#8B136D;" points="288.604,223.294 259.251,219.032 255.417,232.522 285.583,241.086 							"/>
							<line style="fill:none;stroke:#A52B8E;stroke-miterlimit:10;" x1="262.039" y1="221.248" x2="259.61" y2="231.036"/>
							<path style="fill:#FFA9A8;" d="M226.474,205.026c0,0-3.721-12.199-6.261-12.428c-2.539-0.229,0.143,12.222,0.143,12.222
								s-2.547-1.857-3.49-1.277c-0.943,0.581,5.886,7.176,5.886,7.176L226.474,205.026z"/>
							<g>
								<g>
									<g>
										<g>
											<path style="fill:#FFA9A8;" d="M319.548,259.122c0,0,3.784,5.799,6.515,6.168c4.967,0.672,29.477-22.436,29.477-22.436
												l-7.151-2.971l-18.753,12.352L319.548,259.122z"/>
											<path style="fill:#F48989;" d="M349.711,248.186l-3.858-5.918l8.374,0.039l0.108,0.045l0.279,1.367
												C353.614,244.647,351.876,246.248,349.711,248.186z"/>
											<path style="fill:#F48989;" d="M319.548,259.122l10.087-6.887l-8.524,9.02
												C320.182,260.089,319.548,259.122,319.548,259.122z"/>
										</g>
										<path style="fill:#FFA9A8;" d="M346.372,240.473c0,0-1.876-0.515-1.035-2.539l0.518-1.246
											c0.339-0.816,1.292-1.181,2.089-0.8l0.997,0.477L346.372,240.473z"/>
										
											<rect x="340.589" y="235.049" transform="matrix(0.3214 -0.947 0.947 0.3214 12.3121 492.2964)" style="fill:#444CEC;" width="18.076" height="5.017"/>
										<path style="fill:#FFA9A8;" d="M348.424,236.081c0,0-2.917,5.426-2.571,6.188c0.346,0.762,7.375,4.344,8.33,3.108
											c0.955-1.236,2.73-5.683,2.215-6.25S349.467,235.058,348.424,236.081z"/>
										<g>
											<g>
												<g>
													<g>
														<g>
															<polygon style="fill:#442CD3;" points="318.063,428.793 337.159,434.99 337.159,437.945 309.272,437.945 
																309.921,428.793 															"/>
															<g>
																<g>
																	<path style="fill:#FFFFFF;" d="M326.244,433.461c0.264,0,0.512-0.16,0.61-0.422l0.759-2.014
																		c0.127-0.338-0.043-0.713-0.38-0.841c-0.341-0.131-0.715,0.043-0.841,0.38l-0.759,2.014
																		c-0.127,0.338,0.043,0.713,0.38,0.841C326.09,433.449,326.168,433.461,326.244,433.461z"/>
																</g>
																<g>
																	<path style="fill:#FFFFFF;" d="M323.833,432.704c0.264,0,0.512-0.16,0.61-0.422l0.759-2.014
																		c0.127-0.338-0.043-0.713-0.38-0.841c-0.339-0.13-0.715,0.043-0.841,0.38l-0.759,2.014
																		c-0.127,0.338,0.043,0.713,0.38,0.841C323.679,432.691,323.756,432.704,323.833,432.704z"/>
																</g>
																<g>
																	<path style="fill:#FFFFFF;" d="M321.423,431.947c0.264,0,0.512-0.16,0.61-0.422l0.759-2.014
																		c0.127-0.338-0.043-0.713-0.38-0.841c-0.341-0.13-0.715,0.043-0.841,0.38l-0.759,2.014
																		c-0.127,0.338,0.043,0.713,0.38,0.841C321.269,431.934,321.347,431.947,321.423,431.947z"/>
																</g>
															</g>
														</g>
														<polygon style="fill:#FFA9A8;" points="318.063,428.793 314.752,334.722 299.671,334.722 309.921,428.793 
																													"/>
														<polygon style="fill:#8B136D;" points="299.406,221.925 314.864,227.945 314.864,281.342 271.845,281.342 
															278.546,226.864 291.728,221.925 														"/>
														<polygon style="fill:#A3D4FF;" points="303.911,223.68 303.911,223.68 299.406,221.925 291.728,221.925 
															288.763,223.036 288.604,223.294 282.917,281.342 300,281.341 														"/>
														<path style="fill:#FFFFFF;" d="M289.86,222.625c0,0-1.131,6.314,3.662,7.433c5.24,1.223,8.434-2.369,8.839-6.983
															l-2.954-1.15h-7.678L289.86,222.625L289.86,222.625z"/>
														<path style="fill:#FFA9A8;" d="M304.215,209.852l-4.766,15.191c-0.541,1.726-2.14,2.9-3.949,2.9l0,0
															c-2.359,0-4.241-1.969-4.134-4.326l0.301-6.638L304.215,209.852z"/>
														<path style="fill:#F48989;" d="M291.437,222.037c9.149-0.618,11.356-9.388,11.356-9.388l-2.643-0.487l-8.484,4.819
															L291.437,222.037z"/>
														<g>
															<g>
																<path style="fill:#FFA9A8;" d="M304.215,209.852c0,0,3.562-0.883,3.11-4.58c-0.451-3.697-3.414-3.212-4.396-1.206
																	c-0.418,0.854-0.619,1.726-0.712,2.444l-0.703-0.076c0,0-1.704-6.289-4.104-7.804
																	c-2.494-1.575-6.318,0.361-8.064,0.463c-1.198,0.07-4.141-0.931-4.854-0.624c-1.92,0.827-1.778,16.134,3.542,20.013
																	S302.165,215.796,304.215,209.852z"/>
															</g>
															<g>
																<path style="fill:#2C4784;" d="M293.355,200.266c0,0,0.01,0.002,0.028,0.006c-0.011,0.001-0.021,0.003-0.032,0.004
																	L293.355,200.266z"/>
															</g>
														</g>
														<polygon style="fill:#FE26A5;" points="321.538,372.086 298.715,372.086 292.009,281.342 314.865,281.342 
															318.669,334.722 														"/>
														<line style="fill:none;stroke:#FF92D6;stroke-miterlimit:10;" x1="302.168" y1="368.742" x2="318.085" y2="368.742"/>
														<g>
															<polygon style="fill:#442CD3;" points="268.646,428.793 249.55,434.99 249.55,437.945 277.437,437.945 
																276.788,428.793 															"/>
															<g>
																<g>
																	<path style="fill:#FFFFFF;" d="M260.465,433.461c-0.264,0-0.512-0.16-0.61-0.422l-0.759-2.014
																		c-0.127-0.338,0.043-0.713,0.38-0.841c0.341-0.131,0.715,0.043,0.841,0.38l0.759,2.014
																		c0.127,0.338-0.043,0.713-0.38,0.841C260.619,433.449,260.541,433.461,260.465,433.461z"/>
																</g>
																<g>
																	<path style="fill:#FFFFFF;" d="M262.876,432.704c-0.264,0-0.512-0.16-0.61-0.422l-0.759-2.014
																		c-0.127-0.338,0.043-0.713,0.38-0.841c0.339-0.13,0.715,0.043,0.841,0.38l0.759,2.014
																		c0.127,0.338-0.043,0.713-0.38,0.841C263.03,432.691,262.953,432.704,262.876,432.704z"/>
																</g>
																<g>
																	<path style="fill:#FFFFFF;" d="M265.286,431.947c-0.264,0-0.512-0.16-0.61-0.422l-0.759-2.014
																		c-0.127-0.338,0.043-0.713,0.38-0.841c0.341-0.13,0.715,0.043,0.841,0.38l0.759,2.014
																		c0.127,0.338-0.043,0.713-0.38,0.841C265.44,431.934,265.362,431.947,265.286,431.947z"/>
																</g>
															</g>
														</g>
														<polygon style="fill:#FFA9A8;" points="268.646,428.793 271.957,334.722 287.038,334.722 276.788,428.793 
																													"/>
														<polygon style="fill:#F48989;" points="270.642,372.086 282.334,377.898 282.967,372.086 														"/>
														<polygon style="fill:#F48989;" points="303.742,372.086 316.272,377.898 316.067,372.086 														"/>
														<polygon style="fill:#FE26A5;" points="265.606,372.086 288.429,372.086 294.7,281.342 271.845,281.342 
															268.04,334.722 														"/>
														<line style="fill:none;stroke:#FF92D6;stroke-miterlimit:10;" x1="284.976" y1="368.742" x2="269.059" y2="368.742"/>
														<rect x="282.437" y="281.342" style="fill:#FE26A5;" width="19.144" height="26.374"/>
														<line style="fill:none;stroke:#FF92D6;stroke-miterlimit:10;" x1="275.225" y1="285.42" x2="305.28" y2="285.42"/>
														<polygon style="fill:#8B136D;" points="314.864,227.945 331.006,251.633 319.044,259.435 314.864,251.633 
																													"/>
														<line style="fill:none;stroke:#FF92D6;stroke-miterlimit:10;" x1="306.109" y1="287.034" x2="314.144" y2="295.856"/>
														<line style="fill:none;stroke:#FF92D6;stroke-miterlimit:10;" x1="278.515" y1="287.808" x2="271.782" y2="295.315"/>
														<polyline style="fill:none;stroke:#FF92D6;stroke-miterlimit:10;" points="289.355,289.268 289.355,304.797 
															295.408,304.797 														"/>
														<rect x="285.032" y="281.342" style="fill:none;stroke:#FF92D6;stroke-miterlimit:10;" width="7.71" height="4.078"/>
													</g>
													<line style="fill:none;stroke:#A52B8E;stroke-miterlimit:10;" x1="319.548" y1="256.481" x2="327.907" y2="250.644"/>
												</g>
												<path style="fill:#F48989;" d="M289.86,206.511c0,0-1.91,2.872-2.234,3.773s2.234,0.757,2.234,0.757V206.511z"/>
												<path style="fill:#FFFFFF;" d="M287.207,212.846h6.026C293.233,212.846,289.903,218.542,287.207,212.846z"/>
												<path style="fill:#F48989;" d="M303.911,205.035c0,0,0.82-1.083,1.603-0.786c0.784,0.297,1,2.918-0.594,3.837
													c0,0,0.887-1.675,0.416-2.567C304.866,204.627,303.911,205.035,303.911,205.035z"/>
											</g>
											<g>
												<path style="fill:#87156C;" d="M292.779,206.144c0.289,0,0.523-0.234,0.523-0.523c0-0.241-0.166-0.435-0.388-0.496
													c0.152-0.164,0.333-0.261,0.527-0.261c0.533,0,0.964,0.711,0.964,1.588s-0.432,1.588-0.964,1.588
													c-0.532,0-0.964-0.711-0.964-1.588c0-0.137,0.014-0.267,0.033-0.394C292.59,206.108,292.678,206.144,292.779,206.144z"
													/>
											</g>
											<g>
												<g>
													<path style="fill:#87156C;" d="M286.094,206.395c0.251,0,0.454-0.203,0.454-0.454c0-0.209-0.144-0.378-0.337-0.43
														c0.132-0.142,0.289-0.226,0.458-0.226c0.462,0,0.837,0.617,0.837,1.378s-0.375,1.378-0.837,1.378
														s-0.837-0.617-0.837-1.378c0-0.119,0.012-0.232,0.029-0.342C285.931,206.364,286.007,206.395,286.094,206.395z"/>
												</g>
											</g>
											<g>
												
													<rect x="291.738" y="202.837" transform="matrix(0.9966 -0.0821 0.0821 0.9966 -15.6843 24.7763)" style="fill:#87156C;" width="3.567" height="0.652"/>
											</g>
											<g>
												<g>
													<polygon style="fill:#87156C;" points="287.895,203.77 285.124,203.634 285.157,202.983 287.928,203.119 													
														"/>
												</g>
											</g>
										</g>
									</g>
									<path style="fill:#87156C;" d="M283.445,206.142"/>
								</g>
								<polygon style="fill:#7C0B64;" points="314.864,245.627 319.044,259.435 314.864,251.633 								"/>
							</g>
						</g>
					</g>
					<g>
						<g>
							<g>
								<rect x="590.678" y="350.803" style="fill:#442CD3;" width="7.064" height="82.658"/>
								<path style="fill:#FE26A5;" d="M634.353,341.905h-80.286v-85.428c0-5.094,4.13-9.224,9.224-9.224h61.837
									c5.094,0,9.224,4.13,9.224,9.224V341.905z"/>
								<path style="fill:#DD0E8E;" d="M625.361,324.763h-62.303v-61.175c0-5.094,4.13-9.224,9.224-9.224h43.854
									c5.094,0,9.224,4.13,9.224,9.224V324.763z"/>
								<path style="fill:#DD0E8E;" d="M639.612,350.803h-90.804c-1.698,0-3.074-1.376-3.074-3.074v-7.25
									c0-1.698,1.376-3.074,3.074-3.074h90.804c1.698,0,3.074,1.376,3.074,3.074v7.25
									C642.686,349.427,641.31,350.803,639.612,350.803z"/>
								<path style="fill:#442CD3;" d="M631.069,437.945h-73.718v-9.192c0-2.323,1.883-4.206,4.206-4.206h65.306
									c2.323,0,4.206,1.883,4.206,4.206V437.945z"/>
								<path style="fill:#444DEA;" d="M601.311,424.546h-14.202v-10.324c0-1.698,1.376-3.074,3.074-3.074h8.054
									c1.698,0,3.074,1.376,3.074,3.074V424.546z"/>
							</g>
							<g>
								<rect x="388.081" y="350.803" style="fill:#442CD3;" width="7.064" height="82.658"/>
								<path style="fill:#FE26A5;" d="M351.47,341.905h80.286v-85.428c0-5.094-4.13-9.224-9.224-9.224h-61.837
									c-5.094,0-9.224,4.13-9.224,9.224V341.905z"/>
								<path style="fill:#DD0E8E;" d="M360.461,324.763h62.303v-61.175c0-5.094-4.13-9.224-9.224-9.224h-43.854
									c-5.094,0-9.224,4.13-9.224,9.224V324.763z"/>
								<path style="fill:#DD0E8E;" d="M346.211,350.803h90.804c1.698,0,3.074-1.376,3.074-3.074v-7.25
									c0-1.698-1.376-3.074-3.074-3.074h-90.804c-1.698,0-3.074,1.376-3.074,3.074v7.25
									C343.137,349.427,344.513,350.803,346.211,350.803z"/>
								<path style="fill:#442CD3;" d="M354.754,437.945h73.718v-9.192c0-2.323-1.883-4.206-4.206-4.206H358.96
									c-2.323,0-4.206,1.883-4.206,4.206V437.945z"/>
								<path style="fill:#444DEA;" d="M384.512,424.546h14.202v-10.324c0-1.698-1.376-3.074-3.074-3.074h-8.054
									c-1.698,0-3.074,1.376-3.074,3.074V424.546z"/>
							</g>
						</g>
						<g>
							<path style="fill:#8B136D;" d="M581.182,216.443c0.046-0.233-5.355-6.141-3.162-14.853
								c3.615-14.361,29.296-13.962,37.043,5.486c4.725,11.862,10.586,19.915,16.238,25.157
								c11.114,10.308,12.578,19.58,5.257,29.127c-9.76,12.728-32.418,4.496-43.571-20.32
								C592.987,241.04,578.244,231.295,581.182,216.443z"/>
							<g>
								<g>
									<g>
										<g>
											<g>
												<g>
													<g>
														<polygon style="fill:#87156C;" points="614.471,429.012 633.11,435.061 633.11,437.945 605.89,437.945 
															606.523,429.012 														"/>
														<g>
															<g>
																<path style="fill:#FFFFFF;" d="M622.456,433.569c0.257,0,0.5-0.157,0.596-0.411l0.741-1.966
																	c0.124-0.329-0.042-0.696-0.37-0.821c-0.333-0.128-0.697,0.042-0.821,0.37l-0.741,1.966
																	c-0.124,0.329,0.042,0.696,0.37,0.821C622.306,433.556,622.382,433.569,622.456,433.569z"/>
															</g>
															<g>
																<path style="fill:#FFFFFF;" d="M620.103,432.829c0.257,0,0.5-0.157,0.596-0.411l0.741-1.966
																	c0.124-0.329-0.042-0.696-0.37-0.821c-0.331-0.127-0.697,0.042-0.82,0.37l-0.741,1.966
																	c-0.124,0.329,0.042,0.696,0.37,0.821C619.952,432.816,620.028,432.829,620.103,432.829z"/>
															</g>
															<g>
																<path style="fill:#FFFFFF;" d="M617.75,432.09c0.257,0,0.5-0.157,0.596-0.411l0.741-1.966
																	c0.124-0.329-0.042-0.696-0.37-0.821c-0.333-0.127-0.697,0.042-0.821,0.37l-0.741,1.966
																	c-0.124,0.329,0.042,0.696,0.37,0.821C617.6,432.078,617.676,432.09,617.75,432.09z"/>
															</g>
														</g>
													</g>
													<polygon style="fill:#FFA9A8;" points="614.471,429.012 611.239,337.191 596.519,337.191 606.523,429.012 
																											"/>
													<polygon style="fill:#A3D4FF;" points="575.899,231.913 562.139,253.567 575.13,261.36 584.518,238.297 													
														"/>
													<path style="fill:#74B9ED;" d="M569.503,257.984l5.627,3.376l1.798-4.417c-0.133-0.735-0.302-1.376-0.521-1.819
														c-1.098-2.212-2.528-6.788-2.528-6.788L569.503,257.984z"/>
													<line style="fill:none;stroke:#FFFFFF;stroke-miterlimit:10;" x1="565.254" y1="252.845" x2="574.504" y2="258.303"/>
													<polygon style="fill:#A3D4FF;" points="596.26,227.092 611.349,232.968 611.349,285.087 569.358,285.087 
														575.899,231.913 588.766,227.092 													"/>
													<path style="fill:#FFFFFF;" d="M596.26,227.092h-7.495l-5.691,2.132c0.122,2,1.308,10.05,8.583,10.103
														c7.564,0.055,9.323-5.758,9.731-10.238L596.26,227.092z"/>
													<path style="fill:#FFA9A8;" d="M596.26,227.092h-7.495l-3.996,1.497c0.161,2.107,1.048,7.869,5.953,8.664
														c5.381,0.873,8.693-2.94,9.299-8.697L596.26,227.092z"/>
													<path style="fill:#FFA9A8;" d="M600.954,215.308l-4.652,14.828c-0.528,1.684-2.089,2.83-3.854,2.83l0,0
														c-2.303,0-4.14-1.922-4.036-4.223l0.294-6.479L600.954,215.308z"/>
													<path style="fill:#F48989;" d="M588.482,227.201c8.93-0.603,11.084-9.164,11.084-9.164l-2.58-0.476l-8.281,4.703
														L588.482,227.201z"/>
													<g>
														<g>
															<path style="fill:#FFA9A8;" d="M600.954,215.308c0,0,3.477-0.862,3.036-4.47s-3.333-3.135-4.29-1.177
																c-0.408,0.834-0.604,1.684-0.695,2.386l-0.686-0.074c0,0-1.663-6.138-4.006-7.618
																c-2.434-1.537-6.167,0.353-7.871,0.452c-1.169,0.068-4.042-0.909-4.738-0.609
																c-1.874,0.807-1.735,15.748,3.457,19.535C590.351,227.518,598.953,221.11,600.954,215.308z"/>
														</g>
														<path style="fill:#FFFFFF;" d="M585.598,218.761c0,0,2.357-0.238,3.252,0.054c0.896,0.292-0.312,1.829-1.604,1.833
															C585.517,220.654,584.306,218.969,585.598,218.761z"/>
														<g>
															<path style="fill:#2C4784;" d="M590.353,205.951c0,0,0.009,0.002,0.027,0.006c-0.01,0.001-0.021,0.003-0.031,0.004
																L590.353,205.951z"/>
														</g>
													</g>
													<polygon style="fill:#442CD3;" points="615.063,337.191 592.786,337.191 589.04,285.087 611.349,285.087 
														615.063,337.191 													"/>
													<line style="fill:none;stroke:#5261EF;stroke-miterlimit:10;" x1="595.813" y1="333.166" x2="611.349" y2="333.166"/>
													<g>
														<polygon style="fill:#87156C;" points="566.235,429.012 547.596,435.061 547.596,437.945 574.817,437.945 
															574.184,429.012 														"/>
														<g>
															<g>
																<path style="fill:#FFFFFF;" d="M558.251,433.569c-0.257,0-0.5-0.157-0.596-0.412l-0.741-1.966
																	c-0.124-0.329,0.042-0.696,0.37-0.821c0.333-0.128,0.697,0.042,0.821,0.37l0.741,1.966
																	c0.124,0.329-0.042,0.696-0.37,0.821C558.401,433.556,558.325,433.569,558.251,433.569z"/>
															</g>
															<g>
																<path style="fill:#FFFFFF;" d="M560.604,432.829c-0.257,0-0.5-0.157-0.596-0.411l-0.741-1.966
																	c-0.124-0.329,0.042-0.696,0.37-0.821c0.331-0.127,0.697,0.042,0.82,0.37l0.741,1.966
																	c0.124,0.329-0.042,0.696-0.37,0.821C560.754,432.817,560.679,432.829,560.604,432.829z"/>
															</g>
															<g>
																<path style="fill:#FFFFFF;" d="M562.956,432.09c-0.257,0-0.5-0.157-0.596-0.412l-0.741-1.966
																	c-0.124-0.329,0.042-0.696,0.37-0.821c0.333-0.127,0.697,0.042,0.821,0.37l0.741,1.966
																	c0.124,0.329-0.042,0.696-0.37,0.821C563.107,432.078,563.031,432.09,562.956,432.09z"/>
															</g>
														</g>
													</g>
													<polygon style="fill:#FFA9A8;" points="566.235,429.012 569.468,337.191 584.188,337.191 574.184,429.012 
																											"/>
													<polygon style="fill:#F48989;" points="569.468,337.191 583.606,342.53 584.188,337.191 													"/>
													<polygon style="fill:#F48989;" points="596.519,337.191 611.349,341.905 611.239,337.191 													"/>
													<polygon style="fill:#442CD3;" points="565.644,337.191 587.921,337.191 591.666,285.087 569.358,285.087 
														565.644,337.191 													"/>
													<line style="fill:none;stroke:#5261EF;stroke-miterlimit:10;" x1="584.894" y1="333.166" x2="569.358" y2="333.166"/>
													<rect x="579.697" y="285.087" style="fill:#442CD3;" width="18.686" height="25.743"/>
													<line style="fill:none;stroke:#5261EF;stroke-miterlimit:10;" x1="572.658" y1="289.068" x2="601.994" y2="289.068"/>
													<polygon style="fill:#A3D4FF;" points="611.349,232.968 627.104,256.09 615.428,263.705 611.349,256.09 													
														"/>
													<line style="fill:none;stroke:#5261EF;stroke-miterlimit:10;" x1="602.803" y1="290.644" x2="610.645" y2="299.254"/>
													<line style="fill:none;stroke:#5261EF;stroke-miterlimit:10;" x1="575.869" y1="291.399" x2="569.297" y2="298.726"/>
													<polyline style="fill:none;stroke:#5261EF;stroke-miterlimit:10;" points="586.45,292.824 586.45,307.982 
														592.358,307.982 													"/>
													<rect x="582.229" y="285.087" style="fill:none;stroke:#5261EF;stroke-miterlimit:10;" width="7.526" height="3.98"/>
												</g>
												<line style="fill:none;stroke:#FFFFFF;stroke-miterlimit:10;" x1="615.921" y1="260.821" x2="624.08" y2="255.124"/>
											</g>
											<path style="fill:#F48989;" d="M586.942,212.047c0,0-1.864,2.804-2.18,3.683s2.18,0.739,2.18,0.739V212.047z"/>
											<path style="fill:#F48989;" d="M600.658,210.606c0,0,0.8-1.057,1.565-0.767c0.765,0.29,0.976,2.849-0.58,3.745
												c0,0,0.866-1.635,0.406-2.506C601.59,210.208,600.658,210.606,600.658,210.606z"/>
										</g>
										<g>
											<path style="fill:#87156C;" d="M589.791,211.688c0.282,0,0.51-0.228,0.51-0.51c0-0.235-0.162-0.425-0.379-0.484
												c0.148-0.16,0.325-0.255,0.515-0.255c0.52,0,0.941,0.694,0.941,1.55c0,0.856-0.421,1.55-0.941,1.55
												c-0.52,0-0.941-0.694-0.941-1.55c0-0.133,0.013-0.261,0.033-0.384C589.607,211.653,589.693,211.688,589.791,211.688z"/>
										</g>
										<g>
											<g>
												<path style="fill:#87156C;" d="M583.267,211.933c0.245,0,0.443-0.198,0.443-0.443c0-0.204-0.141-0.368-0.329-0.42
													c0.128-0.139,0.282-0.221,0.447-0.221c0.451,0,0.817,0.602,0.817,1.345s-0.366,1.345-0.817,1.345
													s-0.817-0.602-0.817-1.345c0-0.116,0.012-0.226,0.028-0.333C583.107,211.903,583.182,211.933,583.267,211.933z"/>
											</g>
										</g>
										<g>
											
												<rect x="588.776" y="208.461" transform="matrix(0.9966 -0.0821 0.0821 0.9966 -15.1432 49.1711)" style="fill:#87156C;" width="3.482" height="0.636"/>
										</g>
										<g>
											<g>
												<polygon style="fill:#87156C;" points="585.024,209.371 582.319,209.239 582.352,208.603 585.057,208.736 												
													"/>
											</g>
										</g>
									</g>
									<g>
										<path style="fill:#FFA9A8;" d="M625.911,256.801c0,0,3.809,5.583,3.12,8.182c-1.255,4.729-31.263,18.167-31.263,18.167
											v-7.559l18.157-12.278L625.911,256.801z"/>
										<path style="fill:#F48989;" d="M604.758,279.893l-3.889-5.694l-3.101,7.562v0.114l1.128,0.763
											C600.106,282.086,602.2,281.119,604.758,279.893z"/>
										<path style="fill:#F48989;" d="M625.911,256.801l-9.986,6.513l11.323-4.305
											C626.545,257.735,625.911,256.801,625.911,256.801z"/>
									</g>
									<g>
										<path style="fill:#FFA9A8;" d="M560.953,258.833c0,0-4.143,5.34-3.614,7.976c0.963,4.797,23.76,15.374,23.76,15.374
											l0.462-7.545l-14.312-11.105L560.953,258.833z"/>
										<path style="fill:#F48989;" d="M581.177,280.91l-1.196,0.707c-1.2-0.612-3.274-1.684-5.737-3.013l4.307-5.546l2.633,7.738
											L581.177,280.91z"/>
									</g>
									<path style="fill:#FFA9A8;" d="M579.999,273.053c0,0-0.239-1.884,1.901-1.884h1.317c0.862,0,1.548,0.723,1.503,1.584
										l-0.056,1.078L579.999,273.053z"/>
									<path style="fill:#FFA9A8;" d="M599.056,273.995c0,0,0.239-1.884-1.901-1.884h-1.317c-0.862,0-1.548,0.723-1.503,1.584
										l0.056,1.078L599.056,273.995z"/>
									
										<rect x="587.112" y="266.32" transform="matrix(0.0666 -0.9978 0.9978 0.0666 275.7765 845.0757)" style="fill:#444CEC;" width="4.897" height="17.644"/>
									<polygon style="fill:#FFA9A8;" points="560.953,258.833 563.684,254.493 572.473,259.766 569.426,265.223 563.817,263.705 
																			"/>
									<path style="fill:#FFA9A8;" d="M594.329,274.199c0,0,5.983-0.597,6.54,0c0.557,0.597,1.154,8.275-0.318,8.673
										c-1.472,0.398-6.145,0.333-6.463-0.344C593.77,281.852,593.016,274.756,594.329,274.199z"/>
									<path style="fill:#FFA9A8;" d="M585.078,273.458c0,0-5.936-0.961-6.528-0.4c-0.592,0.562-1.657,8.189-0.212,8.676
										s6.113,0.707,6.472,0.052S586.355,274.095,585.078,273.458z"/>
								</g>
								<path style="fill:#87156C;" d="M580.681,211.686"/>
							</g>
							<path style="fill:#8B136D;" d="M581.246,204.311c0,0,1.765,2.644,8.988,3.01c7.628,0.387,9.367,10.672,6.914,20.122
								c0,0,7.086-1.924,7.502-4.29c0.416-2.366,2.368-7.509,2.49-11.953s1.911-6.152,0.407-7.616s-4.846-4.392-4.846-4.392
								s-4.345-2.379-7.273-1.921s-1.374-1.129-5.018,0.823c-3.644,1.952-4.005,1.342-4.679,2.074
								C585.056,200.899,581.246,204.311,581.246,204.311z"/>
							<polygon style="fill:#74B9ED;" points="611.349,250.227 615.428,263.705 611.349,256.09 							"/>
						</g>
						<g>
							<path style="fill:#FFA9A8;" d="M410.887,265.912c0,0,23.734-12.392,26.189-14.987c2.455-2.595,4.205-27.516,4.205-27.516
								l-5.774-1.41c0,0-6.044,20.211-6.613,21.111c-0.569,0.9-20.679,12.109-20.679,12.109L410.887,265.912z"/>
							<path style="fill:#F48989;" d="M418.759,249.263c0,0-3.98,4.822-3.98,5.99c0,0.858,2.311,4.718,3.54,6.711
								c2.768-1.489,5.952-3.224,8.917-4.891L418.759,249.263z"/>
							<path style="fill:#FFA9A8;" d="M435.507,221.999c0,0-2.198-4.837-1.249-6.035c0.595-0.751,1.997-0.007,1.997-0.007
								s0.698-7.25,2.13-7.348c0.87-0.059,0.61,6.243,0.61,6.243s0.233-2.467,2.433-1.367c0,0,1.315-0.453,1.909,0.562
								c0,0,1.492-0.074,1.627,0.671c0.411,2.266-3.684,8.69-3.684,8.69L435.507,221.999z"/>
							<polygon style="fill:#F4A945;" points="396.339,254.432 418.3,248.252 424.097,261.023 404.863,271.252 							"/>
							<line style="fill:none;stroke:#FFF1D6;stroke-miterlimit:10;" x1="416.613" y1="250.169" x2="421.529" y2="260.339"/>
							<path style="fill:#8B136D;" d="M374.897,230.627c1.033-4.076,3.804-5.217,3.804-5.217s0.756-5.9,8.536-6.97
								c9.177-1.263,20.406-1.83,20.262,11.654c-0.056,5.226-3.17,8.444-3.17,8.444l-19.348,8.242
								C378.601,243.402,373.865,234.703,374.897,230.627z"/>
							<g>
								<g>
									<g>
										<g>
											<g>
												<path style="fill:#F4CB45;" d="M388.37,254.321l-15.458,6.02v53.397h43.02c0,0-4.902-50.235-7.716-54.568
													c-2.302-3.545-12.168-4.848-12.168-4.848H388.37z"/>
												<path style="fill:#FFF1D6;" d="M388.37,254.321l-2.396,0.933c0,0,0.139,7.111,7.076,6.711
													c4.947-0.285,5.31-4.742,5.113-7.282c-1.261-0.249-2.115-0.362-2.115-0.362H388.37z"/>
												<path style="fill:#FFA9A8;" d="M383.561,242.248l4.766,15.191c0.541,1.726,2.14,2.9,3.949,2.9l0,0
													c2.359,0,4.241-1.969,4.134-4.326l-0.301-6.638L383.561,242.248z"/>
												<path style="fill:#F48989;" d="M396.339,254.432c-9.149-0.618-11.356-9.388-11.356-9.388l2.643-0.487l8.484,4.819
													L396.339,254.432z"/>
												<g>
													<g>
														<path style="fill:#FFA9A8;" d="M383.561,242.248c0,0-3.562-0.883-3.11-4.58c0.451-3.697,3.414-3.212,4.396-1.206
															c0.418,0.854,0.619,1.726,0.712,2.444l0.703-0.076c0,0,1.704-6.289,4.104-7.804c2.494-1.575,6.318,0.361,8.064,0.463
															c1.198,0.07,4.141-0.931,4.854-0.624c1.92,0.827,1.778,16.134-3.542,20.013S385.611,248.192,383.561,242.248z"/>
													</g>
													<g>
														<path style="fill:#2C4784;" d="M394.421,232.661c0,0-0.01,0.002-0.028,0.006c0.01,0.001,0.021,0.003,0.032,0.004
															L394.421,232.661z"/>
													</g>
												</g>
												<path style="fill:#87156C;" d="M384.982,361.841l24.505-48.103l-36.576,0l-11.781,36.678
													c-2.586,8.304,0.042,16.266,8.568,17.982l0,0C375.98,369.661,381.895,367.455,384.982,361.841z"/>
												<path style="fill:none;stroke:#A52B8E;stroke-miterlimit:10;" d="M370.768,329.002c0,0,9.197-2.995,8.896-13.373"/>
												<polygon style="fill:#F4A945;" points="372.911,260.341 356.77,284.029 368.732,291.831 372.911,284.029 												
													"/>
												<path style="fill:#87156C;" d="M415.931,313.737l26.651,25.124c5.029,4.585,5.539,12.323,1.154,17.527l0,0
													c-3.984,4.728-10.798,5.891-16.124,2.751l-30.587-20.94l-3.95-24.463H415.931z"/>
												<path style="fill:none;stroke:#A52B8E;stroke-miterlimit:10;" d="M363.583,350.594c0,0,2.219-5,11.417-3.583
													c9.197,1.417,9.417,11.75,9.417,11.75"/>
												<path style="fill:none;stroke:#A52B8E;stroke-miterlimit:10;" d="M426.75,353.844c0,0-2.417-5.333,3.583-10.083
													s11.667-1.25,11.667-1.25"/>
												<path style="fill:none;stroke:#A52B8E;stroke-miterlimit:10;" d="M411.863,315.63c0,0,1.734,8.998,12.679,11.123"/>
											</g>
											<line style="fill:none;stroke:#FFF1D6;stroke-miterlimit:10;" x1="368.227" y1="288.876" x2="359.868" y2="283.039"/>
										</g>
										<path style="fill:#F48989;" d="M397.916,238.906c0,0,1.91,2.872,2.234,3.773c0.324,0.901-2.234,0.757-2.234,0.757V238.906
											z"/>
										<path style="fill:#FFFFFF;" d="M400.569,245.241h-6.026C394.543,245.241,397.873,250.937,400.569,245.241z"/>
										<path style="fill:#F48989;" d="M383.865,237.431c0,0-0.82-1.083-1.603-0.786c-0.784,0.297-1,2.918,0.594,3.837
											c0,0-0.887-1.675-0.416-2.567C382.91,237.023,383.865,237.431,383.865,237.431z"/>
									</g>
									<g>
										<path style="fill:#87156C;" d="M394.997,238.539c-0.289,0-0.523-0.234-0.523-0.523c0-0.241,0.166-0.435,0.388-0.496
											c-0.152-0.164-0.333-0.261-0.527-0.261c-0.533,0-0.964,0.711-0.964,1.588s0.432,1.588,0.964,1.588
											c0.532,0,0.964-0.711,0.964-1.588c0-0.137-0.014-0.267-0.033-0.394C395.186,238.504,395.097,238.539,394.997,238.539z"/>
									</g>
									<g>
										<g>
											<path style="fill:#87156C;" d="M401.682,238.79c-0.251,0-0.454-0.203-0.454-0.454c0-0.209,0.144-0.378,0.337-0.43
												c-0.132-0.142-0.289-0.226-0.458-0.226c-0.462,0-0.837,0.617-0.837,1.378s0.374,1.378,0.837,1.378
												c0.462,0,0.837-0.617,0.837-1.378c0-0.119-0.012-0.232-0.029-0.342C401.845,238.759,401.769,238.79,401.682,238.79z"/>
										</g>
									</g>
									<g>
										
											<rect x="393.928" y="233.775" transform="matrix(0.0821 -0.9966 0.9966 0.0821 127.1319 609.1492)" style="fill:#87156C;" width="0.652" height="3.567"/>
									</g>
									<g>
										<g>
											<polygon style="fill:#87156C;" points="399.881,236.165 402.652,236.03 402.619,235.379 399.848,235.515 											"/>
										</g>
									</g>
									<g>
										<polygon style="fill:#87156C;" points="484.526,425.866 504.406,423.066 505.701,425.722 480.635,437.945 
											477.207,429.435 										"/>
										<g>
											<g>
												<path style="fill:#FFFFFF;" d="M493.925,426.476c0.237-0.116,0.39-0.369,0.364-0.646l-0.2-2.143
													c-0.033-0.359-0.352-0.622-0.71-0.589c-0.364,0.032-0.623,0.352-0.589,0.71l0.2,2.143
													c0.033,0.359,0.352,0.622,0.71,0.589C493.781,426.532,493.856,426.51,493.925,426.476z"/>
											</g>
											<g>
												<path style="fill:#FFFFFF;" d="M491.426,426.852c0.237-0.116,0.39-0.369,0.364-0.646l-0.2-2.143
													c-0.033-0.359-0.352-0.622-0.71-0.589c-0.361,0.032-0.623,0.352-0.589,0.71l0.2,2.143
													c0.033,0.359,0.352,0.622,0.71,0.589C491.281,426.908,491.357,426.885,491.426,426.852z"/>
											</g>
											<g>
												<path style="fill:#FFFFFF;" d="M488.928,427.228c0.237-0.116,0.39-0.369,0.364-0.646l-0.2-2.143
													c-0.033-0.359-0.352-0.622-0.71-0.589c-0.364,0.033-0.623,0.352-0.589,0.71l0.2,2.143
													c0.033,0.359,0.352,0.622,0.71,0.589C488.784,427.284,488.859,427.262,488.928,427.228z"/>
											</g>
										</g>
									</g>
									<path style="fill:#FFA9A8;" d="M484.526,425.866l-40.82-77.417c-1.972-3.739-6.663-5.08-10.313-2.948h0
										c-3.625,2.117-4.775,6.817-2.537,10.369l46.351,73.566L484.526,425.866z"/>
									<path style="fill:#F48989;" d="M433.667,355.583c-2.325-7.307,0.446-10.438,0.466-10.46
										c-0.25,0.111-0.497,0.235-0.74,0.377c-3.625,2.117-4.775,6.817-2.537,10.369l7.544,11.974l0,0
										C438.401,367.843,436,362.917,433.667,355.583z"/>
								</g>
								<g>
									<path style="fill:#FFA9A8;" d="M357.992,284.758c0,0-3.903,5.72-3.196,8.383c1.285,4.845,32.029,18.612,32.029,18.612
										v-7.744l-18.603-12.578L357.992,284.758z"/>
									<path style="fill:#F48989;" d="M379.664,308.416l3.984-5.834l3.177,7.748v0.117l-1.155,0.782
										C384.43,310.662,382.285,309.671,379.664,308.416z"/>
									<path style="fill:#F48989;" d="M357.992,284.758l10.231,6.673l-11.6-4.41C357.342,285.714,357.992,284.758,357.992,284.758
										z"/>
								</g>
								<path style="fill:#FFA9A8;" d="M385.505,302.373c0,0-0.245-1.93,1.947-1.93h1.35c0.883,0,1.586,0.741,1.54,1.623
									l-0.058,1.104L385.505,302.373z"/>
								
									<rect x="386.195" y="301.039" transform="matrix(0.9978 -0.0666 0.0666 0.9978 -19.3334 26.9884)" style="fill:#444CEC;" width="18.076" height="5.017"/>
								<path style="fill:#FFA9A8;" d="M390.348,302.582c0,0-6.13-0.611-6.7,0c-0.571,0.611-1.182,8.478,0.326,8.885
									c1.508,0.408,6.295,0.341,6.621-0.352C390.921,310.423,391.693,303.153,390.348,302.582z"/>
							</g>
							<path style="fill:#87156C;" d="M404.331,238.537"/>
							<polyline style="fill:none;stroke:#A52B8E;stroke-miterlimit:10;" points="398.613,315.63 401.711,329.002 399.234,332.752 
															"/>
						</g>
						<g>
							<g>
								<rect x="465.497" y="308.586" style="fill:#442CC4;" width="55.051" height="8.248"/>
							</g>
							<g>
								<g>
									<rect x="525.669" y="299.95" style="fill:#2416A8;" width="2.463" height="1.422"/>
									<rect x="522.126" y="299.95" style="fill:#2416A8;" width="2.463" height="1.422"/>
									<rect x="518.582" y="299.95" style="fill:#2416A8;" width="2.463" height="1.422"/>
								</g>
								<path style="fill:#444CEC;" d="M447.67,300.66h90.706c1.514,0,2.742-1.228,2.742-2.742v-47.924
									c0-1.514-1.228-2.742-2.742-2.742H447.67c-1.514,0-2.742,1.228-2.742,2.742v47.924
									C444.928,299.433,446.155,300.66,447.67,300.66z"/>
								<path style="fill:#442CD3;" d="M538.376,297.911H447.67c-1.514,0-2.742-1.228-2.742-2.742v2.75
									c0,1.514,1.228,2.742,2.742,2.742h90.706c1.514,0,2.742-1.228,2.742-2.742v-2.75
									C541.118,296.683,539.89,297.911,538.376,297.911z"/>
								<path style="fill:#4D72FF;" d="M538.376,247.252H447.67c-1.514,0-2.742,1.228-2.742,2.742v2.605
									c0-1.514,1.228-2.742,2.742-2.742h90.706c1.514,0,2.742,1.228,2.742,2.742v-2.605
									C541.118,248.48,539.89,247.252,538.376,247.252z"/>
							</g>
							<path style="fill:#442CD3;" d="M500.753,282.728h-15.459c-4.844,0-8.771-3.927-8.771-8.771l0,0
								c0-4.844,3.927-8.771,8.771-8.771h15.459c4.844,0,8.771,3.927,8.771,8.771l0,0
								C509.524,278.801,505.597,282.728,500.753,282.728z"/>
							<rect x="482.67" y="272.977" style="fill:#2416A8;" width="20.705" height="1.958"/>
							<g>
								<rect x="449.363" y="314.425" style="fill:#444CEC;" width="87.319" height="2.408"/>
								<rect x="453.684" y="312.182" style="fill:#4D72FF;" width="78.677" height="2.243"/>
							</g>
							<path style="fill:#4D72FF;" d="M485.426,273.956v40.552h15.194v-40.552H485.426z M493.023,293.549
								c-1.591,0-2.88-1.29-2.88-2.88c0-1.591,1.29-2.88,2.88-2.88s2.88,1.289,2.88,2.88
								C495.903,292.26,494.613,293.549,493.023,293.549z"/>
						</g>
						<g>
							<g>
								<polygon style="fill:#87156C;" points="368.722,416.807 350.577,425.399 350.955,428.329 378.613,424.757 376.797,415.764 
																	"/>
								<g>
									<g>
										<path style="fill:#FFFFFF;" d="M361.206,422.485c-0.261,0.034-0.528-0.094-0.659-0.34l-1.011-1.9
											c-0.17-0.318-0.048-0.713,0.269-0.882c0.322-0.174,0.714-0.049,0.882,0.269l1.011,1.9c0.17,0.318,0.048,0.713-0.269,0.882
											C361.358,422.452,361.282,422.475,361.206,422.485z"/>
									</g>
									<g>
										<path style="fill:#FFFFFF;" d="M363.5,421.424c-0.262,0.034-0.528-0.094-0.659-0.34l-1.011-1.9
											c-0.17-0.318-0.048-0.713,0.269-0.882c0.319-0.172,0.714-0.049,0.882,0.269l1.011,1.9c0.17,0.318,0.048,0.713-0.269,0.882
											C363.652,421.392,363.576,421.414,363.5,421.424z"/>
									</g>
									<g>
										<path style="fill:#FFFFFF;" d="M365.794,420.365c-0.262,0.034-0.528-0.094-0.659-0.34l-1.011-1.9
											c-0.17-0.318-0.048-0.713,0.269-0.882c0.322-0.173,0.714-0.049,0.882,0.269l1.011,1.9c0.17,0.318,0.048,0.713-0.269,0.882
											C365.945,420.333,365.869,420.355,365.794,420.365z"/>
									</g>
								</g>
							</g>
							<path style="fill:#FFA9A8;" d="M368.722,416.807l-9.25-41.197l4.807-19.824c1.082-4.06,5.135-6.578,9.255-5.75l0,0
								c4.74,0.953,7.541,5.878,5.936,10.439l-6.567,18.438l3.894,36.852L368.722,416.807z"/>
							<path style="fill:#F48989;" d="M377.125,358.5c-0.063,4.938-4.222,20.412-4.222,20.412l6.567-18.438
								c1.604-4.561-1.197-9.486-5.936-10.439C373.534,350.035,377.188,353.563,377.125,358.5z"/>
						</g>
					</g>
					<g>
						<path style="fill:#4D72FF;" d="M64.743,451.432h620.513c3.709,0,6.743-3.035,6.743-6.743l0,0c0-3.709-3.035-6.743-6.743-6.743
							H64.743c-3.709,0-6.743,3.035-6.743,6.743l0,0C58,448.397,61.035,451.432,64.743,451.432z"/>
						<path style="fill:#444CEC;" d="M685.257,444.688H64.743c-2.481,0-4.656-1.362-5.826-3.372
							c-0.579,0.994-0.917,2.144-0.917,3.372v0c0,3.709,3.035,6.743,6.743,6.743h620.513c3.709,0,6.743-3.035,6.743-6.743v0
							c0-1.227-0.338-2.378-0.917-3.372C689.912,443.326,687.738,444.688,685.257,444.688z"/>
					</g>
					<g>
						<rect x="98" y="316.834" style="fill:#74B9ED;" width="554" height="8.04"/>
					</g>
					<g>
						<g>
							<g>
								<g>
									<path style="fill:#F4A945;" d="M471.397,193.181l12.701-12.701c-3.251-3.25-7.741-5.261-12.701-5.261
										c-9.92,0-17.962,8.042-17.962,17.962s8.042,17.962,17.962,17.962c4.96,0,9.451-2.011,12.701-5.261L471.397,193.181z
										 M469.404,181.494c0-1.101,0.892-1.993,1.993-1.993s1.993,0.892,1.993,1.993s-0.892,1.993-1.993,1.993
										S469.404,182.594,469.404,181.494z"/>
								</g>
							</g>
							<circle style="fill:#F4CB45;" cx="490.522" cy="193.181" r="1.993"/>
							<circle style="fill:#F4CB45;" cx="501.14" cy="193.181" r="1.993"/>
							<circle style="fill:#F4CB45;" cx="511.757" cy="193.181" r="1.993"/>
							<circle style="fill:#F4CB45;" cx="522.375" cy="193.181" r="4.25"/>
							<circle style="fill:#F4CB45;" cx="532.993" cy="193.181" r="1.993"/>
							<circle style="fill:#F4CB45;" cx="543.61" cy="193.181" r="1.993"/>
							<circle style="fill:#F4CB45;" cx="554.228" cy="193.181" r="1.993"/>
						</g>
					</g>
					<g>
						<g>
							<rect x="188.164" y="308.586" style="fill:#442CC4;" width="55.051" height="8.248"/>
						</g>
						<g>
							<g>
								<rect x="248.335" y="299.95" style="fill:#2416A8;" width="2.463" height="1.422"/>
								<rect x="244.792" y="299.95" style="fill:#2416A8;" width="2.463" height="1.422"/>
								<rect x="241.249" y="299.95" style="fill:#2416A8;" width="2.463" height="1.422"/>
							</g>
							<path style="fill:#444CEC;" d="M170.336,300.66h90.706c1.514,0,2.742-1.228,2.742-2.742v-47.924
								c0-1.514-1.228-2.742-2.742-2.742h-90.706c-1.514,0-2.742,1.228-2.742,2.742v47.924
								C167.594,299.433,168.822,300.66,170.336,300.66z"/>
							<path style="fill:#442CD3;" d="M261.042,297.911h-90.706c-1.514,0-2.742-1.228-2.742-2.742v2.75
								c0,1.514,1.228,2.742,2.742,2.742h90.706c1.514,0,2.742-1.228,2.742-2.742v-2.75
								C263.785,296.683,262.557,297.911,261.042,297.911z"/>
							<path style="fill:#4D72FF;" d="M261.042,247.252h-90.706c-1.514,0-2.742,1.228-2.742,2.742v2.605
								c0-1.514,1.228-2.742,2.742-2.742h90.706c1.514,0,2.742,1.228,2.742,2.742v-2.605
								C263.785,248.48,262.557,247.252,261.042,247.252z"/>
						</g>
						<path style="fill:#442CD3;" d="M223.419,282.728H207.96c-4.844,0-8.771-3.927-8.771-8.771l0,0
							c0-4.844,3.927-8.771,8.771-8.771h15.459c4.844,0,8.771,3.927,8.771,8.771l0,0
							C232.191,278.801,228.263,282.728,223.419,282.728z"/>
						<rect x="205.337" y="272.977" style="fill:#2416A8;" width="20.705" height="1.958"/>
						<g>
							<rect x="172.03" y="314.425" style="fill:#444CEC;" width="87.319" height="2.408"/>
							<rect x="176.351" y="312.182" style="fill:#4D72FF;" width="78.677" height="2.243"/>
						</g>
						<path style="fill:#4D72FF;" d="M208.092,273.956v40.552h15.194v-40.552H208.092z M215.689,293.549
							c-1.591,0-2.88-1.29-2.88-2.88c0-1.591,1.29-2.88,2.88-2.88s2.88,1.289,2.88,2.88
							C218.57,292.26,217.28,293.549,215.689,293.549z"/>
					</g>
					<g>
						<path style="fill:none;stroke:#F4CB45;stroke-width:2;stroke-linecap:round;stroke-miterlimit:10;" d="M223.979,171.98
							c0,0,6.803-2.239,8.825,3.355c2.259,6.251-3.428,10.138-9.846,11.415c-2.277,0.453-3.214,0.754-3.506,1.495
							c-0.506,1.286,0.205,2.307,0.989,2.589"/>
						<path style="fill:none;stroke:#F4CB45;stroke-width:2;stroke-linecap:round;stroke-miterlimit:10;" d="M203.168,171.98
							c0,0-6.803-2.239-8.825,3.355c-2.259,6.251,3.428,10.138,9.846,11.415c2.277,0.453,3.214,0.754,3.506,1.495
							c0.506,1.286-0.205,2.307-0.989,2.589"/>
						<path style="fill:#F4A945;" d="M213.583,189.437L213.583,189.437c-6.075,0-11-4.925-11-11v-10.768h22v10.768
							C224.583,184.512,219.658,189.437,213.583,189.437z"/>
						<path style="fill:#F4A945;" d="M220.627,186.886l-7.043,0.45l-7.043-0.45c0,0,5.524,4.617,5.274,14.283
							c-0.25,9.667-2.583,12.333-2.583,12.333h4.353h4.353c0,0-2.333-2.667-2.583-12.333
							C215.103,191.502,220.627,186.886,220.627,186.886z"/>
						<rect x="209.231" y="213.502" style="fill:#F4CB45;" width="8.705" height="5.53"/>
						<rect x="203.917" y="215.565" style="fill:#F4CB45;" width="19.333" height="9.05"/>
						<rect x="208.229" y="217.584" style="fill:#F4A945;" width="10.708" height="5.013"/>
						<rect x="201.729" y="224.615" style="fill:#F4A945;" width="23.708" height="2.513"/>
						<rect x="200.167" y="165.156" style="fill:#F4CB45;" width="26.833" height="2.513"/>
					</g>
					<polygon style="fill:#F4CB45;" points="171.714,159.751 174.92,166.247 182.089,167.289 176.901,172.345 178.126,179.485 
						171.714,176.114 165.302,179.485 166.527,172.345 161.339,167.289 168.508,166.247 					"/>
					<polygon style="fill:#F4CB45;" points="193.838,145.096 196.072,149.623 201.067,150.348 197.453,153.872 198.306,158.847 
						193.838,156.498 189.37,158.847 190.223,153.872 186.609,150.348 191.604,149.623 					"/>
					<g>
						<g>
							<g>
								<g>
									<path style="fill:#442CD3;" d="M416.135,208.536h-0.408c-1.243,0-2.25-1.007-2.25-2.25v-1.878h4.908v1.878
										C418.385,207.528,417.378,208.536,416.135,208.536z"/>
								</g>
								<g>
									<path style="fill:#F4CB45;" d="M415.931,176.654c-5.561,0-10.069,4.508-10.069,10.069c0,6.627,6.259,9.405,6.259,14.261
										h3.81h3.81c0-4.856,6.259-7.634,6.259-14.261C426,181.162,421.492,176.654,415.931,176.654z"/>
								</g>
								<g>
									<path style="fill:#444CEC;" d="M417.491,207.707h-3.12c-1.243,0-2.25-1.007-2.25-2.25v-4.474h7.62v4.474
										C419.741,206.7,418.734,207.707,417.491,207.707z"/>
								</g>
								<g>
									<path style="fill:#442CD3;" d="M419.736,202.679h-7.609c-0.23,0-0.417-0.187-0.417-0.417l0,0
										c0-0.23,0.187-0.417,0.417-0.417h7.609c0.23,0,0.417,0.187,0.417,0.417l0,0
										C420.153,202.492,419.966,202.679,419.736,202.679z"/>
								</g>
								<g>
									<path style="fill:#442CD3;" d="M419.736,204.575h-7.609c-0.23,0-0.417-0.187-0.417-0.417l0,0
										c0-0.23,0.187-0.417,0.417-0.417h7.609c0.23,0,0.417,0.187,0.417,0.417l0,0
										C420.153,204.389,419.966,204.575,419.736,204.575z"/>
								</g>
								<g>
									<path style="fill:#442CD3;" d="M419.736,206.472h-7.609c-0.23,0-0.417-0.187-0.417-0.417l0,0
										c0-0.23,0.187-0.417,0.417-0.417h7.609c0.23,0,0.417,0.187,0.417,0.417l0,0
										C420.153,206.285,419.966,206.472,419.736,206.472z"/>
								</g>
							</g>
						</g>
						<polyline style="fill:none;stroke:#444CEC;stroke-miterlimit:10;" points="413.994,200.984 413.994,192.44 417.869,192.44 
							417.869,200.984 						"/>
						<g>
							<g>
								<line style="fill:none;stroke:#F4A945;stroke-miterlimit:10;" x1="415.931" y1="174.338" x2="415.931" y2="164.898"/>
							</g>
							<g>
								<line style="fill:none;stroke:#F4A945;stroke-miterlimit:10;" x1="406.728" y1="178.15" x2="400.053" y2="171.475"/>
								<line style="fill:none;stroke:#F4A945;stroke-miterlimit:10;" x1="431.809" y1="203.231" x2="425.135" y2="196.557"/>
							</g>
							<g>
								<line style="fill:none;stroke:#F4A945;stroke-miterlimit:10;" x1="425.135" y1="178.15" x2="431.809" y2="171.475"/>
								<line style="fill:none;stroke:#F4A945;stroke-miterlimit:10;" x1="400.053" y1="203.231" x2="406.728" y2="196.557"/>
							</g>
							<g>
								<line style="fill:none;stroke:#F4A945;stroke-miterlimit:10;" x1="402.916" y1="187.353" x2="393.477" y2="187.353"/>
								<line style="fill:none;stroke:#F4A945;stroke-miterlimit:10;" x1="438.386" y1="187.353" x2="428.947" y2="187.353"/>
							</g>
						</g>
					</g>
					<g>
						<g>
							<g>
								<g>
									<circle style="fill:#444CEC;" cx="347.145" cy="206.43" r="4.357"/>
								</g>
								<g>
									<path style="fill:#444CEC;" d="M344.879,201.863c0,0.799-0.693,1.456-1.075,1.948l3.341-0.526l3.341,0.348
										c-0.382-0.314-1.075-0.971-1.075-1.77c0-0.542,0.378-1.6,1.678-1.6h-3.944h-3.944
										C344.501,200.263,344.879,201.321,344.879,201.863z"/>
								</g>
							</g>
						</g>
						<g>
							<g>
								<g>
									<circle style="fill:#444CEC;" cx="329.149" cy="187.919" r="4.357"/>
								</g>
								<g>
									<path style="fill:#444CEC;" d="M333.893,185.653c-0.799,0-1.456-0.693-1.948-1.075l0.348,3.341l-0.348,3.341
										c0.492-0.382,1.149-1.075,1.948-1.075c0.542,0,1.6,0.378,1.6,1.678v-3.944v-3.944
										C335.493,185.275,334.436,185.653,333.893,185.653z"/>
								</g>
							</g>
						</g>
						<path style="fill:#444CEC;" d="M335.493,176.781v21.92c0,0.863,0.699,1.562,1.562,1.562h10.09h10.09
							c0.863,0,1.562-0.699,1.562-1.562v-1.688v-3.558v-7.788v-8.887c0-0.863-0.699-1.562-1.562-1.562h-6.146
							c-1.3,0-1.678,1.058-1.678,1.6c0,0.799,0.693,1.456,1.075,1.948l-0.002,0c0.635,0.757,1.018,1.732,1.018,2.796
							c0,2.406-1.951,4.357-4.357,4.357s-4.357-1.951-4.357-4.357c0-1.065,0.383-2.04,1.018-2.796l-0.002,0
							c0.382-0.492,1.075-1.149,1.075-1.948c0-0.542-0.378-1.6-1.678-1.6h-6.146C336.193,175.219,335.493,175.918,335.493,176.781z"
							/>
					</g>
					<g>
						<g>
							<line style="fill:none;stroke:#4D72FF;stroke-miterlimit:10;" x1="628.837" y1="165.002" x2="628.837" y2="163.502"/>
							
								<line style="fill:none;stroke:#4D72FF;stroke-miterlimit:10;stroke-dasharray:3.4,3.4;" x1="628.837" y1="160.102" x2="628.837" y2="148.202"/>
							<polyline style="fill:none;stroke:#4D72FF;stroke-miterlimit:10;" points="628.837,146.502 628.837,145.002 627.337,145.002 
															"/>
							
								<line style="fill:none;stroke:#4D72FF;stroke-miterlimit:10;stroke-dasharray:3.1118,3.1118;" x1="624.226" y1="145.002" x2="569.769" y2="145.002"/>
							<polyline style="fill:none;stroke:#4D72FF;stroke-miterlimit:10;" points="568.213,145.002 566.713,145.002 566.713,146.502 
															"/>
							
								<line style="fill:none;stroke:#4D72FF;stroke-miterlimit:10;stroke-dasharray:3.0163,3.0163;" x1="566.713" y1="149.518" x2="566.713" y2="220.401"/>
							<polyline style="fill:none;stroke:#4D72FF;stroke-miterlimit:10;" points="566.713,221.909 566.713,223.409 565.213,223.409 
															"/>
							
								<line style="fill:none;stroke:#4D72FF;stroke-miterlimit:10;stroke-dasharray:3.0201,3.0201;" x1="562.193" y1="223.409" x2="497.26" y2="223.409"/>
							<polyline style="fill:none;stroke:#4D72FF;stroke-miterlimit:10;" points="495.75,223.409 494.25,223.409 494.25,224.909 
															"/>
							
								<line style="fill:none;stroke:#4D72FF;stroke-miterlimit:10;stroke-dasharray:2.5839,2.5839;" x1="494.25" y1="227.493" x2="494.25" y2="236.536"/>
							<line style="fill:none;stroke:#4D72FF;stroke-miterlimit:10;" x1="494.25" y1="237.828" x2="494.25" y2="239.328"/>
						</g>
					</g>
					<g>
						<path style="fill:#444CEC;" d="M646.419,163.746h-35.163c-0.934,0-1.691,0.757-1.691,1.691v15.906
							c0,2.103,1.705,3.808,3.808,3.808l0,0c1.407,0,2.716-0.722,3.467-1.913l2.535-4.021c0.75-1.19,2.059-1.913,3.467-1.913h5.997
							h5.997c1.407,0,2.716,0.722,3.467,1.913l2.535,4.021c0.75,1.19,2.059,1.913,3.467,1.913h0c2.103,0,3.808-1.705,3.808-3.808
							v-15.906C648.11,164.503,647.353,163.746,646.419,163.746z"/>
						<g>
							<g>
								<g>
									<path style="fill:#442CC4;" d="M634.597,170.252h-11.519c-0.394,0-0.713-0.319-0.713-0.713v-6.418
										c0-0.394,0.319-0.713,0.713-0.713h11.519c0.394,0,0.713,0.319,0.713,0.713v6.418
										C635.31,169.933,634.991,170.252,634.597,170.252z"/>
								</g>
								<g>
									<g>
										<rect x="625.646" y="172.962" style="fill:#FFFFFF;" width="2.296" height="0.733"/>
									</g>
									<g>
										<rect x="629.339" y="172.962" style="fill:#FFFFFF;" width="2.296" height="0.733"/>
									</g>
								</g>
								<g>
									<path style="fill:#442CC4;" d="M618.604,162.558h-4.147c-0.481,0-0.87,0.39-0.87,0.87v0.317h5.888v-0.317
										C619.475,162.948,619.085,162.558,618.604,162.558z"/>
								</g>
								<g>
									<path style="fill:#442CC4;" d="M643.218,162.558h-4.147c-0.481,0-0.87,0.39-0.87,0.87v0.317h5.888v-0.317
										C644.089,162.948,643.699,162.558,643.218,162.558z"/>
								</g>
							</g>
							<g>
								<g>
									<circle style="fill:#FFFFFF;" cx="641.144" cy="170.536" r="4.304"/>
								</g>
								<g>
									<circle style="fill:#FFFFFF;" cx="616.53" cy="170.536" r="4.304"/>
								</g>
								<g>
									<polygon style="fill:#444CEC;" points="619.596,171.318 617.3,171.318 617.3,173.595 615.748,173.595 615.748,171.318 
										613.465,171.318 613.465,169.767 615.748,169.767 615.748,167.478 617.3,167.478 617.3,169.767 619.596,169.767 									
										"/>
								</g>
								<g>
									<g>
										<path style="fill:#444CEC;" d="M641.144,167.505c0.578,0,1.047,0.468,1.047,1.046c0,0.578-0.469,1.046-1.047,1.046
											c-0.578,0-1.046-0.469-1.046-1.046C640.098,167.974,640.567,167.505,641.144,167.505z"/>
									</g>
									<g>
										<path style="fill:#444CEC;" d="M639.159,171.583c-0.578,0-1.046-0.468-1.046-1.046c0-0.578,0.468-1.047,1.046-1.047
											c0.578,0,1.047,0.469,1.047,1.047C640.206,171.115,639.737,171.583,639.159,171.583z"/>
									</g>
									<g>
										<path style="fill:#444CEC;" d="M641.144,173.568c-0.578,0-1.046-0.468-1.046-1.047c0-0.578,0.469-1.046,1.046-1.046
											c0.578,0,1.047,0.468,1.047,1.046C642.191,173.1,641.722,173.568,641.144,173.568z"/>
									</g>
									<g>
										<path style="fill:#444CEC;" d="M643.129,171.583c-0.577,0-1.046-0.468-1.046-1.046c0-0.578,0.469-1.047,1.046-1.047
											c0.578,0,1.046,0.469,1.046,1.047C644.176,171.115,643.707,171.583,643.129,171.583z"/>
									</g>
								</g>
							</g>
						</g>
					</g>
				</g>
				<path style="fill:#8B136D;" d="M129.819,211.546c0,0-0.874,8.298,3.445,9.465c0,0-6.639,6.118-14.289,4.269
					c-3.537-3.545,2.315-14.23,2.315-14.23l4.044-2.269L129.819,211.546z"/>
				<polygon style="fill:#8B136D;" points="283.34,277.023 282.106,289.614 269,289.614 277.093,238.675 282.437,239.882 				"/>
				<polygon style="fill:#8B136D;" points="301.088,265.304 299.439,289.614 316.954,289.614 314.864,251.633 				"/>
			</g>
		</g>
		<polygon style="fill:#F48989;" points="113.263,420.995 121.67,423.852 121.981,420.995 		"/>
		<polygon style="fill:#F48989;" points="162.132,420.995 153.725,423.852 153.414,420.995 		"/>
	</g>
</g>
</svg>
